<mxfile host="app.diagrams.net" agent="Mozilla/5.0 (Windows NT 10.0; Win64; x64) AppleWebKit/537.36 (KHTML, like Gecko) Chrome/129.0.0.0 Safari/537.36" version="24.7.17">
  <diagram name="Page-1" id="RwiVDrGwcPDumMMB-b11">
    <mxGraphModel dx="1000" dy="497" grid="1" gridSize="10" guides="1" tooltips="1" connect="1" arrows="1" fold="1" page="1" pageScale="1" pageWidth="827" pageHeight="1169" math="0" shadow="0">
      <root>
        <mxCell id="0" />
        <mxCell id="1" parent="0" />
        <mxCell id="AO27_3ovghTQUj0quv3u-1" value="Start" style="whiteSpace=wrap;strokeWidth=2;labelBackgroundColor=none;fillColor=#F2CC8F;strokeColor=#E07A5F;fontColor=#393C56;" vertex="1" parent="1">
          <mxGeometry x="1957" y="20" width="95" height="48" as="geometry" />
        </mxCell>
        <mxCell id="AO27_3ovghTQUj0quv3u-2" value="Home Page" style="whiteSpace=wrap;strokeWidth=2;labelBackgroundColor=none;fillColor=#F2CC8F;strokeColor=#E07A5F;fontColor=#393C56;" vertex="1" parent="1">
          <mxGeometry x="1935" y="118" width="139" height="48" as="geometry" />
        </mxCell>
        <mxCell id="AO27_3ovghTQUj0quv3u-3" value="Header Navigation" style="whiteSpace=wrap;strokeWidth=2;labelBackgroundColor=none;fillColor=#F2CC8F;strokeColor=#E07A5F;fontColor=#393C56;" vertex="1" parent="1">
          <mxGeometry x="1566" y="217" width="192" height="48" as="geometry" />
        </mxCell>
        <mxCell id="AO27_3ovghTQUj0quv3u-4" value="Sidebar Navigation" style="whiteSpace=wrap;strokeWidth=2;labelBackgroundColor=none;fillColor=#F2CC8F;strokeColor=#E07A5F;fontColor=#393C56;" vertex="1" parent="1">
          <mxGeometry x="1842" y="217" width="194" height="48" as="geometry" />
        </mxCell>
        <mxCell id="AO27_3ovghTQUj0quv3u-5" value="Main Content" style="whiteSpace=wrap;strokeWidth=2;labelBackgroundColor=none;fillColor=#F2CC8F;strokeColor=#E07A5F;fontColor=#393C56;" vertex="1" parent="1">
          <mxGeometry x="157" y="217" width="156" height="48" as="geometry" />
        </mxCell>
        <mxCell id="AO27_3ovghTQUj0quv3u-6" value="Welcome Message" style="whiteSpace=wrap;strokeWidth=2;labelBackgroundColor=none;fillColor=#F2CC8F;strokeColor=#E07A5F;fontColor=#393C56;" vertex="1" parent="1">
          <mxGeometry x="20" y="315" width="189" height="48" as="geometry" />
        </mxCell>
        <mxCell id="AO27_3ovghTQUj0quv3u-7" value="Category Selection" style="whiteSpace=wrap;strokeWidth=2;labelBackgroundColor=none;fillColor=#F2CC8F;strokeColor=#E07A5F;fontColor=#393C56;" vertex="1" parent="1">
          <mxGeometry x="259" y="315" width="195" height="48" as="geometry" />
        </mxCell>
        <mxCell id="AO27_3ovghTQUj0quv3u-8" value="Popular Movies Container" style="whiteSpace=wrap;strokeWidth=2;labelBackgroundColor=none;fillColor=#F2CC8F;strokeColor=#E07A5F;fontColor=#393C56;" vertex="1" parent="1">
          <mxGeometry x="503" y="315" width="242" height="48" as="geometry" />
        </mxCell>
        <mxCell id="AO27_3ovghTQUj0quv3u-9" value="Movie Card" style="whiteSpace=wrap;strokeWidth=2;labelBackgroundColor=none;fillColor=#F2CC8F;strokeColor=#E07A5F;fontColor=#393C56;" vertex="1" parent="1">
          <mxGeometry x="554" y="414" width="140" height="48" as="geometry" />
        </mxCell>
        <mxCell id="AO27_3ovghTQUj0quv3u-10" value="Flip Card" style="whiteSpace=wrap;strokeWidth=2;labelBackgroundColor=none;fillColor=#F2CC8F;strokeColor=#E07A5F;fontColor=#393C56;" vertex="1" parent="1">
          <mxGeometry x="562" y="512" width="125" height="48" as="geometry" />
        </mxCell>
        <mxCell id="AO27_3ovghTQUj0quv3u-11" value="Movie Front" style="whiteSpace=wrap;strokeWidth=2;labelBackgroundColor=none;fillColor=#F2CC8F;strokeColor=#E07A5F;fontColor=#393C56;" vertex="1" parent="1">
          <mxGeometry x="455" y="610" width="145" height="48" as="geometry" />
        </mxCell>
        <mxCell id="AO27_3ovghTQUj0quv3u-12" value="Movie Back" style="whiteSpace=wrap;strokeWidth=2;labelBackgroundColor=none;fillColor=#F2CC8F;strokeColor=#E07A5F;fontColor=#393C56;" vertex="1" parent="1">
          <mxGeometry x="650" y="610" width="141" height="48" as="geometry" />
        </mxCell>
        <mxCell id="AO27_3ovghTQUj0quv3u-13" value="Movie Description" style="whiteSpace=wrap;strokeWidth=2;labelBackgroundColor=none;fillColor=#F2CC8F;strokeColor=#E07A5F;fontColor=#393C56;" vertex="1" parent="1">
          <mxGeometry x="492" y="709" width="188" height="48" as="geometry" />
        </mxCell>
        <mxCell id="AO27_3ovghTQUj0quv3u-14" value="Movie Rating and Favorites" style="whiteSpace=wrap;strokeWidth=2;labelBackgroundColor=none;fillColor=#F2CC8F;strokeColor=#E07A5F;fontColor=#393C56;" vertex="1" parent="1">
          <mxGeometry x="729" y="709" width="253" height="48" as="geometry" />
        </mxCell>
        <mxCell id="AO27_3ovghTQUj0quv3u-15" value="Login" style="whiteSpace=wrap;strokeWidth=2;labelBackgroundColor=none;fillColor=#F2CC8F;strokeColor=#E07A5F;fontColor=#393C56;" vertex="1" parent="1">
          <mxGeometry x="1613" y="315" width="98" height="48" as="geometry" />
        </mxCell>
        <mxCell id="AO27_3ovghTQUj0quv3u-16" value="Sign Up" style="whiteSpace=wrap;strokeWidth=2;labelBackgroundColor=none;fillColor=#F2CC8F;strokeColor=#E07A5F;fontColor=#393C56;" vertex="1" parent="1">
          <mxGeometry x="1856" y="315" width="113" height="48" as="geometry" />
        </mxCell>
        <mxCell id="AO27_3ovghTQUj0quv3u-17" value="Favorites" style="whiteSpace=wrap;strokeWidth=2;labelBackgroundColor=none;fillColor=#F2CC8F;strokeColor=#E07A5F;fontColor=#393C56;" vertex="1" parent="1">
          <mxGeometry x="1251" y="315" width="126" height="48" as="geometry" />
        </mxCell>
        <mxCell id="AO27_3ovghTQUj0quv3u-18" value="Home Link" style="whiteSpace=wrap;strokeWidth=2;labelBackgroundColor=none;fillColor=#F2CC8F;strokeColor=#E07A5F;fontColor=#393C56;" vertex="1" parent="1">
          <mxGeometry x="1427" y="315" width="136" height="48" as="geometry" />
        </mxCell>
        <mxCell id="AO27_3ovghTQUj0quv3u-19" value="Search Link" style="whiteSpace=wrap;strokeWidth=2;labelBackgroundColor=none;fillColor=#F2CC8F;strokeColor=#E07A5F;fontColor=#393C56;" vertex="1" parent="1">
          <mxGeometry x="1058" y="315" width="143" height="48" as="geometry" />
        </mxCell>
        <mxCell id="AO27_3ovghTQUj0quv3u-20" value="About Link" style="whiteSpace=wrap;strokeWidth=2;labelBackgroundColor=none;fillColor=#F2CC8F;strokeColor=#E07A5F;fontColor=#393C56;" vertex="1" parent="1">
          <mxGeometry x="2113" y="315" width="138" height="48" as="geometry" />
        </mxCell>
        <mxCell id="AO27_3ovghTQUj0quv3u-21" value="Logout" style="whiteSpace=wrap;strokeWidth=2;labelBackgroundColor=none;fillColor=#F2CC8F;strokeColor=#E07A5F;fontColor=#393C56;" vertex="1" parent="1">
          <mxGeometry x="2363" y="315" width="108" height="48" as="geometry" />
        </mxCell>
        <mxCell id="AO27_3ovghTQUj0quv3u-22" value="Contact" style="whiteSpace=wrap;strokeWidth=2;labelBackgroundColor=none;fillColor=#F2CC8F;strokeColor=#E07A5F;fontColor=#393C56;" vertex="1" parent="1">
          <mxGeometry x="2595" y="315" width="116" height="48" as="geometry" />
        </mxCell>
        <mxCell id="AO27_3ovghTQUj0quv3u-23" value="Search Page" style="whiteSpace=wrap;strokeWidth=2;labelBackgroundColor=none;fillColor=#F2CC8F;strokeColor=#E07A5F;fontColor=#393C56;" vertex="1" parent="1">
          <mxGeometry x="1038" y="414" width="146" height="48" as="geometry" />
        </mxCell>
        <mxCell id="AO27_3ovghTQUj0quv3u-24" value="Search Bar" style="whiteSpace=wrap;strokeWidth=2;labelBackgroundColor=none;fillColor=#F2CC8F;strokeColor=#E07A5F;fontColor=#393C56;" vertex="1" parent="1">
          <mxGeometry x="876" y="512" width="137" height="48" as="geometry" />
        </mxCell>
        <mxCell id="AO27_3ovghTQUj0quv3u-25" value="Search Results Container" style="whiteSpace=wrap;strokeWidth=2;labelBackgroundColor=none;fillColor=#F2CC8F;strokeColor=#E07A5F;fontColor=#393C56;" vertex="1" parent="1">
          <mxGeometry x="1089" y="512" width="238" height="48" as="geometry" />
        </mxCell>
        <mxCell id="AO27_3ovghTQUj0quv3u-26" value="Redirect to Login Page" style="whiteSpace=wrap;strokeWidth=2;labelBackgroundColor=none;fillColor=#F2CC8F;strokeColor=#E07A5F;fontColor=#393C56;" vertex="1" parent="1">
          <mxGeometry x="1663" y="414" width="221" height="48" as="geometry" />
        </mxCell>
        <mxCell id="AO27_3ovghTQUj0quv3u-27" value="Redirect to Sign Up Page" style="whiteSpace=wrap;strokeWidth=2;labelBackgroundColor=none;fillColor=#F2CC8F;strokeColor=#E07A5F;fontColor=#393C56;" vertex="1" parent="1">
          <mxGeometry x="1934" y="414" width="236" height="48" as="geometry" />
        </mxCell>
        <mxCell id="AO27_3ovghTQUj0quv3u-28" value="Fetch Search Results" style="whiteSpace=wrap;strokeWidth=2;labelBackgroundColor=none;fillColor=#F2CC8F;strokeColor=#E07A5F;fontColor=#393C56;" vertex="1" parent="1">
          <mxGeometry x="841" y="610" width="208" height="48" as="geometry" />
        </mxCell>
        <mxCell id="AO27_3ovghTQUj0quv3u-29" value="Display Search Results" style="whiteSpace=wrap;strokeWidth=2;labelBackgroundColor=none;fillColor=#F2CC8F;strokeColor=#E07A5F;fontColor=#393C56;" vertex="1" parent="1">
          <mxGeometry x="1099" y="610" width="218" height="48" as="geometry" />
        </mxCell>
        <mxCell id="AO27_3ovghTQUj0quv3u-30" value="Footer" style="whiteSpace=wrap;strokeWidth=2;labelBackgroundColor=none;fillColor=#F2CC8F;strokeColor=#E07A5F;fontColor=#393C56;" vertex="1" parent="1">
          <mxGeometry x="1463" y="512" width="108" height="48" as="geometry" />
        </mxCell>
        <mxCell id="AO27_3ovghTQUj0quv3u-31" value="About Us" style="whiteSpace=wrap;strokeWidth=2;labelBackgroundColor=none;fillColor=#F2CC8F;strokeColor=#E07A5F;fontColor=#393C56;" vertex="1" parent="1">
          <mxGeometry x="1367" y="610" width="125" height="48" as="geometry" />
        </mxCell>
        <mxCell id="AO27_3ovghTQUj0quv3u-32" value="Contacts" style="whiteSpace=wrap;strokeWidth=2;labelBackgroundColor=none;fillColor=#F2CC8F;strokeColor=#E07A5F;fontColor=#393C56;" vertex="1" parent="1">
          <mxGeometry x="1542" y="610" width="122" height="48" as="geometry" />
        </mxCell>
        <mxCell id="AO27_3ovghTQUj0quv3u-33" value="Social Media Links" style="whiteSpace=wrap;strokeWidth=2;labelBackgroundColor=none;fillColor=#F2CC8F;strokeColor=#E07A5F;fontColor=#393C56;" vertex="1" parent="1">
          <mxGeometry x="1714" y="610" width="189" height="48" as="geometry" />
        </mxCell>
        <mxCell id="AO27_3ovghTQUj0quv3u-34" value="About Us Page" style="whiteSpace=wrap;strokeWidth=2;labelBackgroundColor=none;fillColor=#F2CC8F;strokeColor=#E07A5F;fontColor=#393C56;" vertex="1" parent="1">
          <mxGeometry x="2220" y="414" width="163" height="48" as="geometry" />
        </mxCell>
        <mxCell id="AO27_3ovghTQUj0quv3u-35" value="Logout Functionality" style="whiteSpace=wrap;strokeWidth=2;labelBackgroundColor=none;fillColor=#F2CC8F;strokeColor=#E07A5F;fontColor=#393C56;" vertex="1" parent="1">
          <mxGeometry x="2433" y="414" width="208" height="48" as="geometry" />
        </mxCell>
        <mxCell id="AO27_3ovghTQUj0quv3u-36" value="Contact Page" style="whiteSpace=wrap;strokeWidth=2;labelBackgroundColor=none;fillColor=#F2CC8F;strokeColor=#E07A5F;fontColor=#393C56;" vertex="1" parent="1">
          <mxGeometry x="2691" y="414" width="154" height="48" as="geometry" />
        </mxCell>
        <mxCell id="AO27_3ovghTQUj0quv3u-37" value="" style="curved=1;startArrow=none;endArrow=block;exitX=0.5;exitY=1.01;entryX=0.5;entryY=0.01;rounded=0;labelBackgroundColor=none;strokeColor=#E07A5F;fontColor=default;" edge="1" parent="1" source="AO27_3ovghTQUj0quv3u-1" target="AO27_3ovghTQUj0quv3u-2">
          <mxGeometry relative="1" as="geometry">
            <Array as="points" />
          </mxGeometry>
        </mxCell>
        <mxCell id="AO27_3ovghTQUj0quv3u-38" value="" style="curved=1;startArrow=none;endArrow=block;exitX=0;exitY=0.72;entryX=0.5;entryY=0;rounded=0;labelBackgroundColor=none;strokeColor=#E07A5F;fontColor=default;" edge="1" parent="1" source="AO27_3ovghTQUj0quv3u-2" target="AO27_3ovghTQUj0quv3u-3">
          <mxGeometry relative="1" as="geometry">
            <Array as="points">
              <mxPoint x="1662" y="192" />
            </Array>
          </mxGeometry>
        </mxCell>
        <mxCell id="AO27_3ovghTQUj0quv3u-39" value="" style="curved=1;startArrow=none;endArrow=block;exitX=0.27;exitY=1.02;entryX=0.5;entryY=0;rounded=0;labelBackgroundColor=none;strokeColor=#E07A5F;fontColor=default;" edge="1" parent="1" source="AO27_3ovghTQUj0quv3u-2" target="AO27_3ovghTQUj0quv3u-4">
          <mxGeometry relative="1" as="geometry">
            <Array as="points">
              <mxPoint x="1939" y="192" />
            </Array>
          </mxGeometry>
        </mxCell>
        <mxCell id="AO27_3ovghTQUj0quv3u-40" value="" style="curved=1;startArrow=none;endArrow=block;exitX=0;exitY=0.55;entryX=0.5;entryY=0;rounded=0;labelBackgroundColor=none;strokeColor=#E07A5F;fontColor=default;" edge="1" parent="1" source="AO27_3ovghTQUj0quv3u-2" target="AO27_3ovghTQUj0quv3u-5">
          <mxGeometry relative="1" as="geometry">
            <Array as="points">
              <mxPoint x="235" y="192" />
            </Array>
          </mxGeometry>
        </mxCell>
        <mxCell id="AO27_3ovghTQUj0quv3u-41" value="" style="curved=1;startArrow=none;endArrow=block;exitX=0.12;exitY=1;entryX=0.5;entryY=0;rounded=0;labelBackgroundColor=none;strokeColor=#E07A5F;fontColor=default;" edge="1" parent="1" source="AO27_3ovghTQUj0quv3u-5" target="AO27_3ovghTQUj0quv3u-6">
          <mxGeometry relative="1" as="geometry">
            <Array as="points">
              <mxPoint x="114" y="290" />
            </Array>
          </mxGeometry>
        </mxCell>
        <mxCell id="AO27_3ovghTQUj0quv3u-42" value="" style="curved=1;startArrow=none;endArrow=block;exitX=0.88;exitY=1;entryX=0.5;entryY=0;rounded=0;labelBackgroundColor=none;strokeColor=#E07A5F;fontColor=default;" edge="1" parent="1" source="AO27_3ovghTQUj0quv3u-5" target="AO27_3ovghTQUj0quv3u-7">
          <mxGeometry relative="1" as="geometry">
            <Array as="points">
              <mxPoint x="356" y="290" />
            </Array>
          </mxGeometry>
        </mxCell>
        <mxCell id="AO27_3ovghTQUj0quv3u-43" value="" style="curved=1;startArrow=none;endArrow=block;exitX=1;exitY=0.71;entryX=0.5;entryY=0;rounded=0;labelBackgroundColor=none;strokeColor=#E07A5F;fontColor=default;" edge="1" parent="1" source="AO27_3ovghTQUj0quv3u-5" target="AO27_3ovghTQUj0quv3u-8">
          <mxGeometry relative="1" as="geometry">
            <Array as="points">
              <mxPoint x="624" y="290" />
            </Array>
          </mxGeometry>
        </mxCell>
        <mxCell id="AO27_3ovghTQUj0quv3u-44" value="" style="curved=1;startArrow=none;endArrow=block;exitX=0.5;exitY=1.01;entryX=0.5;entryY=-0.01;rounded=0;labelBackgroundColor=none;strokeColor=#E07A5F;fontColor=default;" edge="1" parent="1" source="AO27_3ovghTQUj0quv3u-8" target="AO27_3ovghTQUj0quv3u-9">
          <mxGeometry relative="1" as="geometry">
            <Array as="points" />
          </mxGeometry>
        </mxCell>
        <mxCell id="AO27_3ovghTQUj0quv3u-45" value="" style="curved=1;startArrow=none;endArrow=block;exitX=0.5;exitY=1;entryX=0.5;entryY=0;rounded=0;labelBackgroundColor=none;strokeColor=#E07A5F;fontColor=default;" edge="1" parent="1" source="AO27_3ovghTQUj0quv3u-9" target="AO27_3ovghTQUj0quv3u-10">
          <mxGeometry relative="1" as="geometry">
            <Array as="points" />
          </mxGeometry>
        </mxCell>
        <mxCell id="AO27_3ovghTQUj0quv3u-46" value="" style="curved=1;startArrow=none;endArrow=block;exitX=0.12;exitY=1.01;entryX=0.5;entryY=0.01;rounded=0;labelBackgroundColor=none;strokeColor=#E07A5F;fontColor=default;" edge="1" parent="1" source="AO27_3ovghTQUj0quv3u-10" target="AO27_3ovghTQUj0quv3u-11">
          <mxGeometry relative="1" as="geometry">
            <Array as="points">
              <mxPoint x="528" y="585" />
            </Array>
          </mxGeometry>
        </mxCell>
        <mxCell id="AO27_3ovghTQUj0quv3u-47" value="" style="curved=1;startArrow=none;endArrow=block;exitX=0.88;exitY=1.01;entryX=0.5;entryY=0.01;rounded=0;labelBackgroundColor=none;strokeColor=#E07A5F;fontColor=default;" edge="1" parent="1" source="AO27_3ovghTQUj0quv3u-10" target="AO27_3ovghTQUj0quv3u-12">
          <mxGeometry relative="1" as="geometry">
            <Array as="points">
              <mxPoint x="721" y="585" />
            </Array>
          </mxGeometry>
        </mxCell>
        <mxCell id="AO27_3ovghTQUj0quv3u-48" value="" style="curved=1;startArrow=none;endArrow=block;exitX=0.03;exitY=1.02;entryX=0.5;entryY=0;rounded=0;labelBackgroundColor=none;strokeColor=#E07A5F;fontColor=default;" edge="1" parent="1" source="AO27_3ovghTQUj0quv3u-12" target="AO27_3ovghTQUj0quv3u-13">
          <mxGeometry relative="1" as="geometry">
            <Array as="points">
              <mxPoint x="586" y="684" />
            </Array>
          </mxGeometry>
        </mxCell>
        <mxCell id="AO27_3ovghTQUj0quv3u-49" value="" style="curved=1;startArrow=none;endArrow=block;exitX=0.97;exitY=1.02;entryX=0.5;entryY=0;rounded=0;labelBackgroundColor=none;strokeColor=#E07A5F;fontColor=default;" edge="1" parent="1" source="AO27_3ovghTQUj0quv3u-12" target="AO27_3ovghTQUj0quv3u-14">
          <mxGeometry relative="1" as="geometry">
            <Array as="points">
              <mxPoint x="856" y="684" />
            </Array>
          </mxGeometry>
        </mxCell>
        <mxCell id="AO27_3ovghTQUj0quv3u-50" value="" style="curved=1;startArrow=none;endArrow=block;exitX=0.5;exitY=1;entryX=0.5;entryY=0;rounded=0;labelBackgroundColor=none;strokeColor=#E07A5F;fontColor=default;" edge="1" parent="1" source="AO27_3ovghTQUj0quv3u-3" target="AO27_3ovghTQUj0quv3u-15">
          <mxGeometry relative="1" as="geometry">
            <Array as="points" />
          </mxGeometry>
        </mxCell>
        <mxCell id="AO27_3ovghTQUj0quv3u-51" value="" style="curved=1;startArrow=none;endArrow=block;exitX=1;exitY=0.89;entryX=0.5;entryY=0;rounded=0;labelBackgroundColor=none;strokeColor=#E07A5F;fontColor=default;" edge="1" parent="1" source="AO27_3ovghTQUj0quv3u-3" target="AO27_3ovghTQUj0quv3u-16">
          <mxGeometry relative="1" as="geometry">
            <Array as="points">
              <mxPoint x="1912" y="290" />
            </Array>
          </mxGeometry>
        </mxCell>
        <mxCell id="AO27_3ovghTQUj0quv3u-52" value="" style="curved=1;startArrow=none;endArrow=block;exitX=0;exitY=0.78;entryX=0.5;entryY=0;rounded=0;labelBackgroundColor=none;strokeColor=#E07A5F;fontColor=default;" edge="1" parent="1" source="AO27_3ovghTQUj0quv3u-3" target="AO27_3ovghTQUj0quv3u-17">
          <mxGeometry relative="1" as="geometry">
            <Array as="points">
              <mxPoint x="1314" y="290" />
            </Array>
          </mxGeometry>
        </mxCell>
        <mxCell id="AO27_3ovghTQUj0quv3u-53" value="" style="curved=1;startArrow=none;endArrow=block;exitX=0;exitY=0.69;entryX=0.21;entryY=0;rounded=0;labelBackgroundColor=none;strokeColor=#E07A5F;fontColor=default;" edge="1" parent="1" source="AO27_3ovghTQUj0quv3u-4" target="AO27_3ovghTQUj0quv3u-18">
          <mxGeometry relative="1" as="geometry">
            <Array as="points">
              <mxPoint x="1414" y="290" />
            </Array>
          </mxGeometry>
        </mxCell>
        <mxCell id="AO27_3ovghTQUj0quv3u-54" value="" style="curved=1;startArrow=none;endArrow=block;exitX=0;exitY=0.62;entryX=0.5;entryY=0;rounded=0;labelBackgroundColor=none;strokeColor=#E07A5F;fontColor=default;" edge="1" parent="1" source="AO27_3ovghTQUj0quv3u-4" target="AO27_3ovghTQUj0quv3u-19">
          <mxGeometry relative="1" as="geometry">
            <Array as="points">
              <mxPoint x="1130" y="290" />
            </Array>
          </mxGeometry>
        </mxCell>
        <mxCell id="AO27_3ovghTQUj0quv3u-55" value="" style="curved=1;startArrow=none;endArrow=block;exitX=1;exitY=0.91;entryX=0.5;entryY=0;rounded=0;labelBackgroundColor=none;strokeColor=#E07A5F;fontColor=default;" edge="1" parent="1" source="AO27_3ovghTQUj0quv3u-4" target="AO27_3ovghTQUj0quv3u-20">
          <mxGeometry relative="1" as="geometry">
            <Array as="points">
              <mxPoint x="2182" y="290" />
            </Array>
          </mxGeometry>
        </mxCell>
        <mxCell id="AO27_3ovghTQUj0quv3u-56" value="" style="curved=1;startArrow=none;endArrow=block;exitX=1;exitY=0.71;entryX=0.5;entryY=0;rounded=0;labelBackgroundColor=none;strokeColor=#E07A5F;fontColor=default;" edge="1" parent="1" source="AO27_3ovghTQUj0quv3u-4" target="AO27_3ovghTQUj0quv3u-21">
          <mxGeometry relative="1" as="geometry">
            <Array as="points">
              <mxPoint x="2417" y="290" />
            </Array>
          </mxGeometry>
        </mxCell>
        <mxCell id="AO27_3ovghTQUj0quv3u-57" value="" style="curved=1;startArrow=none;endArrow=block;exitX=1;exitY=0.64;entryX=0.5;entryY=0;rounded=0;labelBackgroundColor=none;strokeColor=#E07A5F;fontColor=default;" edge="1" parent="1" source="AO27_3ovghTQUj0quv3u-4" target="AO27_3ovghTQUj0quv3u-22">
          <mxGeometry relative="1" as="geometry">
            <Array as="points">
              <mxPoint x="2653" y="290" />
            </Array>
          </mxGeometry>
        </mxCell>
        <mxCell id="AO27_3ovghTQUj0quv3u-58" value="" style="curved=1;startArrow=none;endArrow=block;exitX=0;exitY=0.58;entryX=0;entryY=0.12;rounded=0;labelBackgroundColor=none;strokeColor=#E07A5F;fontColor=default;" edge="1" parent="1" source="AO27_3ovghTQUj0quv3u-2" target="AO27_3ovghTQUj0quv3u-23">
          <mxGeometry relative="1" as="geometry">
            <Array as="points">
              <mxPoint x="911" y="192" />
              <mxPoint x="911" y="389" />
            </Array>
          </mxGeometry>
        </mxCell>
        <mxCell id="AO27_3ovghTQUj0quv3u-59" value="" style="curved=1;startArrow=none;endArrow=block;exitX=0;exitY=0.95;entryX=0.5;entryY=0;rounded=0;labelBackgroundColor=none;strokeColor=#E07A5F;fontColor=default;" edge="1" parent="1" source="AO27_3ovghTQUj0quv3u-23" target="AO27_3ovghTQUj0quv3u-24">
          <mxGeometry relative="1" as="geometry">
            <Array as="points">
              <mxPoint x="945" y="487" />
            </Array>
          </mxGeometry>
        </mxCell>
        <mxCell id="AO27_3ovghTQUj0quv3u-60" value="" style="curved=1;startArrow=none;endArrow=block;exitX=0.83;exitY=1;entryX=0.5;entryY=0;rounded=0;labelBackgroundColor=none;strokeColor=#E07A5F;fontColor=default;" edge="1" parent="1" source="AO27_3ovghTQUj0quv3u-23" target="AO27_3ovghTQUj0quv3u-25">
          <mxGeometry relative="1" as="geometry">
            <Array as="points">
              <mxPoint x="1208" y="487" />
            </Array>
          </mxGeometry>
        </mxCell>
        <mxCell id="AO27_3ovghTQUj0quv3u-61" value="" style="curved=1;startArrow=none;endArrow=block;exitX=0.5;exitY=1.01;entryX=0.25;entryY=-0.01;rounded=0;labelBackgroundColor=none;strokeColor=#E07A5F;fontColor=default;" edge="1" parent="1" source="AO27_3ovghTQUj0quv3u-15" target="AO27_3ovghTQUj0quv3u-26">
          <mxGeometry relative="1" as="geometry">
            <Array as="points">
              <mxPoint x="1662" y="389" />
            </Array>
          </mxGeometry>
        </mxCell>
        <mxCell id="AO27_3ovghTQUj0quv3u-62" value="" style="curved=1;startArrow=none;endArrow=block;exitX=0.5;exitY=1.01;entryX=0.21;entryY=-0.01;rounded=0;labelBackgroundColor=none;strokeColor=#E07A5F;fontColor=default;" edge="1" parent="1" source="AO27_3ovghTQUj0quv3u-16" target="AO27_3ovghTQUj0quv3u-27">
          <mxGeometry relative="1" as="geometry">
            <Array as="points">
              <mxPoint x="1912" y="389" />
            </Array>
          </mxGeometry>
        </mxCell>
        <mxCell id="AO27_3ovghTQUj0quv3u-63" value="" style="curved=1;startArrow=none;endArrow=block;exitX=0.5;exitY=1.01;entryX=0.5;entryY=0.01;rounded=0;labelBackgroundColor=none;strokeColor=#E07A5F;fontColor=default;" edge="1" parent="1" source="AO27_3ovghTQUj0quv3u-24" target="AO27_3ovghTQUj0quv3u-28">
          <mxGeometry relative="1" as="geometry">
            <Array as="points" />
          </mxGeometry>
        </mxCell>
        <mxCell id="AO27_3ovghTQUj0quv3u-64" value="" style="curved=1;startArrow=none;endArrow=block;exitX=0.5;exitY=1.01;entryX=0.5;entryY=0.01;rounded=0;labelBackgroundColor=none;strokeColor=#E07A5F;fontColor=default;" edge="1" parent="1" source="AO27_3ovghTQUj0quv3u-25" target="AO27_3ovghTQUj0quv3u-29">
          <mxGeometry relative="1" as="geometry">
            <Array as="points" />
          </mxGeometry>
        </mxCell>
        <mxCell id="AO27_3ovghTQUj0quv3u-65" value="" style="curved=1;startArrow=none;endArrow=block;exitX=1;exitY=0.68;entryX=0.5;entryY=0;rounded=0;labelBackgroundColor=none;strokeColor=#E07A5F;fontColor=default;" edge="1" parent="1" source="AO27_3ovghTQUj0quv3u-23" target="AO27_3ovghTQUj0quv3u-30">
          <mxGeometry relative="1" as="geometry">
            <Array as="points">
              <mxPoint x="1517" y="487" />
            </Array>
          </mxGeometry>
        </mxCell>
        <mxCell id="AO27_3ovghTQUj0quv3u-66" value="" style="curved=1;startArrow=none;endArrow=block;exitX=0.1;exitY=1.01;entryX=0.5;entryY=0.01;rounded=0;labelBackgroundColor=none;strokeColor=#E07A5F;fontColor=default;" edge="1" parent="1" source="AO27_3ovghTQUj0quv3u-30" target="AO27_3ovghTQUj0quv3u-31">
          <mxGeometry relative="1" as="geometry">
            <Array as="points">
              <mxPoint x="1429" y="585" />
            </Array>
          </mxGeometry>
        </mxCell>
        <mxCell id="AO27_3ovghTQUj0quv3u-67" value="" style="curved=1;startArrow=none;endArrow=block;exitX=0.89;exitY=1.01;entryX=0.5;entryY=0.01;rounded=0;labelBackgroundColor=none;strokeColor=#E07A5F;fontColor=default;" edge="1" parent="1" source="AO27_3ovghTQUj0quv3u-30" target="AO27_3ovghTQUj0quv3u-32">
          <mxGeometry relative="1" as="geometry">
            <Array as="points">
              <mxPoint x="1603" y="585" />
            </Array>
          </mxGeometry>
        </mxCell>
        <mxCell id="AO27_3ovghTQUj0quv3u-68" value="" style="curved=1;startArrow=none;endArrow=block;exitX=1;exitY=0.69;entryX=0.5;entryY=0.01;rounded=0;labelBackgroundColor=none;strokeColor=#E07A5F;fontColor=default;" edge="1" parent="1" source="AO27_3ovghTQUj0quv3u-30" target="AO27_3ovghTQUj0quv3u-33">
          <mxGeometry relative="1" as="geometry">
            <Array as="points">
              <mxPoint x="1809" y="585" />
            </Array>
          </mxGeometry>
        </mxCell>
        <mxCell id="AO27_3ovghTQUj0quv3u-69" value="" style="curved=1;startArrow=none;endArrow=block;exitX=0.56;exitY=0;entryX=0;entryY=0.66;rounded=0;labelBackgroundColor=none;strokeColor=#E07A5F;fontColor=default;" edge="1" parent="1" source="AO27_3ovghTQUj0quv3u-18" target="AO27_3ovghTQUj0quv3u-2">
          <mxGeometry relative="1" as="geometry">
            <Array as="points">
              <mxPoint x="1513" y="290" />
              <mxPoint x="1513" y="192" />
            </Array>
          </mxGeometry>
        </mxCell>
        <mxCell id="AO27_3ovghTQUj0quv3u-70" value="" style="curved=1;startArrow=none;endArrow=block;exitX=0.5;exitY=1.01;entryX=0.56;entryY=-0.01;rounded=0;labelBackgroundColor=none;strokeColor=#E07A5F;fontColor=default;" edge="1" parent="1" source="AO27_3ovghTQUj0quv3u-19" target="AO27_3ovghTQUj0quv3u-23">
          <mxGeometry relative="1" as="geometry">
            <Array as="points">
              <mxPoint x="1130" y="389" />
            </Array>
          </mxGeometry>
        </mxCell>
        <mxCell id="AO27_3ovghTQUj0quv3u-71" value="" style="curved=1;startArrow=none;endArrow=block;exitX=0.5;exitY=1.01;entryX=0.14;entryY=-0.01;rounded=0;labelBackgroundColor=none;strokeColor=#E07A5F;fontColor=default;" edge="1" parent="1" source="AO27_3ovghTQUj0quv3u-20" target="AO27_3ovghTQUj0quv3u-34">
          <mxGeometry relative="1" as="geometry">
            <Array as="points">
              <mxPoint x="2182" y="389" />
            </Array>
          </mxGeometry>
        </mxCell>
        <mxCell id="AO27_3ovghTQUj0quv3u-72" value="" style="curved=1;startArrow=none;endArrow=block;exitX=0.5;exitY=1.01;entryX=0.22;entryY=-0.01;rounded=0;labelBackgroundColor=none;strokeColor=#E07A5F;fontColor=default;" edge="1" parent="1" source="AO27_3ovghTQUj0quv3u-21" target="AO27_3ovghTQUj0quv3u-35">
          <mxGeometry relative="1" as="geometry">
            <Array as="points">
              <mxPoint x="2417" y="389" />
            </Array>
          </mxGeometry>
        </mxCell>
        <mxCell id="AO27_3ovghTQUj0quv3u-73" value="" style="curved=1;startArrow=none;endArrow=block;exitX=0.5;exitY=1.01;entryX=0.13;entryY=-0.01;rounded=0;labelBackgroundColor=none;strokeColor=#E07A5F;fontColor=default;" edge="1" parent="1" source="AO27_3ovghTQUj0quv3u-22" target="AO27_3ovghTQUj0quv3u-36">
          <mxGeometry relative="1" as="geometry">
            <Array as="points">
              <mxPoint x="2653" y="389" />
            </Array>
          </mxGeometry>
        </mxCell>
        <mxCell id="AO27_3ovghTQUj0quv3u-74" value="" style="curved=1;startArrow=none;endArrow=block;exitX=0.58;exitY=-0.01;entryX=1;entryY=0.73;rounded=0;labelBackgroundColor=none;strokeColor=#E07A5F;fontColor=default;" edge="1" parent="1" source="AO27_3ovghTQUj0quv3u-34" target="AO27_3ovghTQUj0quv3u-2">
          <mxGeometry relative="1" as="geometry">
            <Array as="points">
              <mxPoint x="2328" y="389" />
              <mxPoint x="2328" y="192" />
            </Array>
          </mxGeometry>
        </mxCell>
        <mxCell id="AO27_3ovghTQUj0quv3u-75" value="" style="curved=1;startArrow=none;endArrow=block;exitX=0.55;exitY=-0.01;entryX=1;entryY=0.64;rounded=0;labelBackgroundColor=none;strokeColor=#E07A5F;fontColor=default;" edge="1" parent="1" source="AO27_3ovghTQUj0quv3u-35" target="AO27_3ovghTQUj0quv3u-2">
          <mxGeometry relative="1" as="geometry">
            <Array as="points">
              <mxPoint x="2560" y="389" />
              <mxPoint x="2560" y="192" />
            </Array>
          </mxGeometry>
        </mxCell>
        <mxCell id="AO27_3ovghTQUj0quv3u-76" value="" style="curved=1;startArrow=none;endArrow=block;exitX=0.5;exitY=-0.01;entryX=1;entryY=0.61;rounded=0;labelBackgroundColor=none;strokeColor=#E07A5F;fontColor=default;" edge="1" parent="1" source="AO27_3ovghTQUj0quv3u-36" target="AO27_3ovghTQUj0quv3u-2">
          <mxGeometry relative="1" as="geometry">
            <Array as="points">
              <mxPoint x="2768" y="192" />
            </Array>
          </mxGeometry>
        </mxCell>
        <mxCell id="AO27_3ovghTQUj0quv3u-77" value="" style="curved=1;startArrow=none;endArrow=block;exitX=0.58;exitY=-0.01;entryX=0;entryY=0.87;rounded=0;labelBackgroundColor=none;strokeColor=#E07A5F;fontColor=default;" edge="1" parent="1" source="AO27_3ovghTQUj0quv3u-26" target="AO27_3ovghTQUj0quv3u-2">
          <mxGeometry relative="1" as="geometry">
            <Array as="points">
              <mxPoint x="1807" y="389" />
              <mxPoint x="1807" y="192" />
            </Array>
          </mxGeometry>
        </mxCell>
        <mxCell id="AO27_3ovghTQUj0quv3u-78" value="" style="curved=1;startArrow=none;endArrow=block;exitX=0.56;exitY=-0.01;entryX=0.76;entryY=1.02;rounded=0;labelBackgroundColor=none;strokeColor=#E07A5F;fontColor=default;" edge="1" parent="1" source="AO27_3ovghTQUj0quv3u-27" target="AO27_3ovghTQUj0quv3u-2">
          <mxGeometry relative="1" as="geometry">
            <Array as="points">
              <mxPoint x="2078" y="389" />
              <mxPoint x="2078" y="192" />
            </Array>
          </mxGeometry>
        </mxCell>
      </root>
    </mxGraphModel>
  </diagram>
</mxfile>
